<?xml version="1.0" encoding="UTF-8"?>
<svg id="Layer_1" data-name="Layer 1" xmlns="http://www.w3.org/2000/svg" viewBox="0 0 660.13 215.17">
  <defs>
    <style>
      .cls-1 {
        fill: #231f20;
      }
    </style>
  </defs>
  <g>
    <path class="cls-1" d="m267.8,147.74c-1.85-3.87-4.35-7.24-7.52-10.11-3.17-2.87-6.89-5.14-11.18-6.79-4.28-1.66-8.92-2.49-13.88-2.49s-9.6.83-13.89,2.49c-4.29,1.65-8.02,3.92-11.19,6.79-3.16,2.87-5.65,6.24-7.44,10.11-1.81,3.86-2.71,8-2.71,12.43s.9,8.54,2.71,12.37c1.79,3.83,4.28,7.18,7.44,10.05,3.17,2.87,6.9,5.13,11.19,6.79,4.29,1.66,8.91,2.49,13.89,2.49s9.6-.83,13.88-2.49c4.29-1.66,8.01-3.92,11.18-6.79,3.17-2.87,5.67-6.22,7.52-10.05,1.85-3.83,2.76-7.95,2.76-12.37s-.91-8.57-2.76-12.43Zm-26.15,23.14c-.36,3.32-.86,6.23-1.51,8.72-.64,2.51-1.37,4.48-2.21,5.91-.86,1.44-1.75,2.16-2.71,2.16s-1.87-.72-2.71-2.16c-.84-1.43-1.58-3.4-2.22-5.91-.64-2.49-1.14-5.4-1.5-8.72-.37-3.31-.55-6.88-.55-10.71s.18-7.43.55-10.78c.36-3.35.86-6.26,1.5-8.72.64-2.47,1.38-4.42,2.22-5.85.84-1.44,1.74-2.16,2.71-2.16s1.85.72,2.71,2.16c.84,1.43,1.57,3.38,2.21,5.85.65,2.46,1.15,5.37,1.51,8.72.36,3.35.54,6.94.54,10.78s-.18,7.4-.54,10.71Z"/>
    <path class="cls-1" d="m351.24,181.81c-.65-1.47-1.04-3.18-1.2-5.14-.16-1.95-.22-3.88-.18-5.79.04-1.92.06-3.21.06-3.87v-37.78h-31.03v.89c.4.22.78.93,1.14,2.1.36,1.18.66,2.61.91,4.3.23,1.7.44,3.57.6,5.64.16,2.06.28,4.09.36,6.07.08,1.98.14,3.79.18,5.42.04,1.62.07,2.91.07,3.86v3.43c-.89,5.37-2.33,9.37-4.33,11.98-2,2.61-3.93,3.92-5.78,3.92-1.36,0-2.5-.68-3.42-2.05-.93-1.36-1.39-3.4-1.39-6.13v-39.44h-31.02v.89c.4.22.78.93,1.14,2.1.36,1.18.66,2.61.9,4.3.24,1.7.44,3.57.61,5.64.16,2.06.27,4.09.35,6.07.09,1.98.15,3.79.19,5.42.04,1.62.06,2.91.06,3.86v11.6c.16,4.12.92,7.8,2.29,11.05.64,1.4,1.4,2.76,2.28,4.09.89,1.33,1.98,2.52,3.31,3.59,1.32,1.07,2.86,1.91,4.62,2.53,1.77.63,3.81.94,6.14.94,6.01,0,11.02-1.45,15.02-4.36,4.01-2.91,7.02-7.16,9.02-12.75v2.86c.16,2.66.84,5.01,2.04,7.08,1.04,1.84,2.64,3.49,4.81,4.97,2.16,1.47,5.25,2.21,9.26,2.21,3.61,0,6.49-.37,8.65-1.1,2.17-.74,3.81-1.54,4.94-2.42,1.28-.96,2.16-2.1,2.64-3.43l-.36-.66c-1.28.22-2.24-.4-2.88-1.88Z"/>
    <path class="cls-1" d="m420.19,129.94c-2.12-1.36-4.83-2.04-8.11-2.04-4.98,0-9.16,1.37-12.56,4.09-3.41,2.72-6.03,6.66-7.88,11.82v-14.47h-30.18v.88c.64.22,1.2,1.21,1.68,2.98.48,1.77.72,3.87.72,6.3v29.61c0,1.18-.05,2.87-.13,5.08-.08,2.21-.23,4.42-.48,6.63-.23,2.21-.58,4.19-1.02,5.96-.45,1.77-.99,2.8-1.62,3.09v.89h34.14v-.89c-.57-.29-1.05-1.21-1.45-2.76-.4-1.54-.72-3.33-.96-5.36-.24-2.02-.42-4.09-.55-6.19-.12-2.09-.18-3.84-.18-5.24v-13.7c.8-4.79,1.96-8.47,3.49-11.05,1.52-2.58,3-3.87,4.45-3.87,1.2,0,2.24,1.03,3.13,3.1.88,2.06,1.32,5.33,1.32,9.83l8.53.33c3.13.15,5.71-.42,7.76-1.71,2.04-1.29,3.6-2.95,4.68-4.98,1.09-2.02,1.62-4.21,1.62-6.57s-.54-4.56-1.62-6.63c-1.09-2.06-2.69-3.77-4.81-5.14Z"/>
    <path class="cls-1" d="m505.86,183.03c-.65-1.47-1.05-3.19-1.2-5.14-.17-1.96-.22-3.89-.19-5.8.04-1.91.07-3.21.07-3.87v-17.89c-.17-4.12-.93-7.8-2.29-11.05-.57-1.4-1.28-2.77-2.17-4.09-.88-1.33-1.97-2.51-3.3-3.54-1.32-1.03-2.86-1.86-4.62-2.49-1.77-.62-3.81-.93-6.14-.93-5.77,0-10.62,1.34-14.55,4.03-3.93,2.69-6.93,6.57-9.01,11.65v-14.58h-31.03v.88c.4.15.74.68,1.03,1.61.27.92.54,2.06.78,3.42.23,1.37.44,2.89.6,4.58.17,1.7.28,3.43.36,5.19.24,4.13.4,8.77.48,13.92v8.62c-.08,3.9-.23,7.44-.48,10.6-.08,1.33-.2,2.66-.36,3.98-.16,1.33-.36,2.52-.6,3.59-.24,1.07-.51,1.97-.78,2.7-.28.74-.63,1.22-1.03,1.44v.89h34.27v-.89c-.72-.29-1.29-1.42-1.68-3.37-.41-1.95-.72-4.1-.97-6.47-.24-2.35-.4-4.65-.48-6.9-.08-2.25-.12-3.85-.12-4.8v-12.38c1.04-4.49,2.48-7.82,4.32-10,1.85-2.17,3.61-3.26,5.3-3.26,1.36,0,2.5.68,3.42,2.05.92,1.36,1.39,3.4,1.39,6.13v27.4c.16,2.65.84,5,2.04,7.07,1.04,1.84,2.64,3.49,4.81,4.97,2.16,1.47,5.25,2.21,9.26,2.21,3.61,0,6.47-.37,8.59-1.1,2.12-.73,3.74-1.54,4.87-2.42,1.28-.96,2.17-2.1,2.65-3.42l-.36-.66c-1.28.22-2.25-.4-2.88-1.88Z"/>
    <path class="cls-1" d="m579.8,173.87c-2,2.13-4.41,3.75-7.21,4.85-2.81,1.11-5.73,1.66-8.78,1.66-2.48,0-4.95-.39-7.39-1.16-2.44-.77-4.65-1.97-6.62-3.59-1.96-1.62-3.58-3.64-4.86-6.08-1.29-2.43-2.05-5.29-2.28-8.61l37.27-10.06v-.21c0-4.12-.83-7.61-2.46-10.45-1.65-2.83-3.82-5.15-6.5-6.96-2.69-1.79-5.81-3.11-9.38-3.91-3.57-.81-7.27-1.22-11.12-1.22-4.89,0-9.52.83-13.89,2.48-4.37,1.66-8.21,3.96-11.54,6.91-3.33,2.94-5.97,6.38-7.93,10.33-1.97,3.94-2.95,8.19-2.95,12.76s.96,8.65,2.89,12.48c1.92,3.83,4.5,7.11,7.75,9.83,3.24,2.73,7.01,4.87,11.3,6.41,4.29,1.55,8.84,2.32,13.64,2.32,6.98,0,13.21-1.53,18.7-4.58,5.5-3.07,9.72-7.13,12.69-12.22l-1.33-.98Zm-35.88-27.07c.67-2.95,1.56-5.49,2.64-7.62,1.08-2.14,2.32-3.8,3.73-4.97,1.4-1.18,2.87-1.77,4.39-1.77,1.44,0,2.6.48,3.48,1.43.88.96,1.49,2.16,1.81,3.6.31,1.43.38,3.03.18,4.8-.2,1.77-.64,3.44-1.32,5.03-.69,1.58-1.59,2.98-2.71,4.19-1.13,1.22-2.48,2.04-4.09,2.49l-9.37,2.54c.15-3.54.57-6.78,1.26-9.72Z"/>
    <path class="cls-1" d="m629.1,129.23v.89c.4.22.78.93,1.14,2.1.36,1.18.66,2.61.9,4.3.24,1.7.45,3.57.61,5.64.16,2.06.28,4.09.36,6.07.08,1.98.14,3.79.18,5.42.04,1.62.07,2.91.07,3.86v3.43c-.89,5.37-2.33,9.37-4.33,11.98-2,2.61-3.93,3.92-5.78,3.92-1.36,0-2.5-.68-3.42-2.05-.93-1.36-1.39-3.4-1.39-6.13v-39.44h-31.02v.89c.4.22.78.93,1.14,2.1.36,1.18.65,2.61.9,4.3.24,1.7.44,3.57.61,5.64.16,2.06.27,4.09.35,6.07.08,1.98.15,3.79.19,5.42.04,1.62.06,2.91.06,3.86v11.6c.16,4.12.92,7.8,2.29,11.05.64,1.4,1.4,2.76,2.28,4.09.89,1.33,1.98,2.52,3.31,3.59,1.32,1.07,2.86,1.91,4.62,2.53,1.77.63,3.81.94,6.13.94,6.02,0,11.03-1.45,15.03-4.36,4.01-2.91,7.01-7.16,9.02-12.75v5.85c0,2.59-.36,5.38-1.09,8.4-.72,3.02-2.1,5.84-4.15,8.45-2.04,2.61-4.95,4.79-8.71,6.52-3.77,1.73-8.66,2.6-14.67,2.6-1.12,0-2.27-.04-3.42-.11-1.16-.08-2.39-.19-3.68-.33l-.23.66c.64,1.69,2.2,3.2,4.68,4.53,2.09,1.1,5.26,2.11,9.5,3.04,4.25.93,10.14,1.38,17.67,1.38,4.01,0,7.54-.44,10.59-1.33,3.04-.88,5.67-2.04,7.87-3.48,2.21-1.44,4.1-3.1,5.65-4.98,1.56-1.88,2.82-3.77,3.79-5.68,2.33-4.57,3.65-9.72,3.97-15.47v-55.02h-31.03Z"/>
    <path class="cls-1" d="m161.68,113.44v40.09h.03l-.08,15.8c0,5.68-.56,9.97-1.68,12.87-1.12,2.91-2.81,4.19-5.05,3.82l-.35.66c.96,1.33,2.28,2.47,3.96,3.43,1.45.88,3.37,1.69,5.78,2.42,2.4.74,5.41,1.1,9.01,1.1,4.33,0,7.65-.74,9.98-2.21,2.33-1.47,4.05-3.13,5.17-4.97,1.28-2.07,2-4.42,2.17-7.07v-25.86h.19v-52.42h-29.12v12.33Z"/>
  </g>
  <g>
    <path class="cls-1" d="m81.73,105.59c-1.52-2.66-3.05-5.6-4.61-8.79-1.56-3.2-2.99-6.36-4.31-9.47-1.31-3.12-2.33-5.58-3.07-7.38l-21.77-53.88h-14.27L0,112.17h36.04v-.98c-3.37-1.48-6.11-3.18-8.24-5.11-2.14-1.92-3.8-3.95-4.98-6.09-1.19-2.13-2.02-4.28-2.46-6.45-.46-2.17-.68-4.25-.68-6.21h21.65c.9,2.21,1.82,4.65,2.76,7.31.95,2.67,1.79,5.17,2.53,7.51.73,2.33,1.27,4.36,1.6,6.09.32,1.72.24,2.7-.25,2.95v.98h37.76v-.98c-1.15-1.07-2.48-2.93-4-5.6Zm-61.44-24.29l8.86-23.62,9.84,23.62h-18.7Z"/>
    <path class="cls-1" d="m143.29,76.69c-2.46-1.77-5.1-3.28-7.93-4.56-2.83-1.27-5.47-2.54-7.93-3.81-2.46-1.27-4.52-2.72-6.15-4.36-1.65-1.64-2.46-3.69-2.46-6.15,0-4.27.55-7.42,1.66-9.48,1.1-2.04,2.23-3.07,3.38-3.07.74,0,1.43.41,2.09,1.23.65.82,1.09,2.01,1.29,3.57.2,1.56.16,3.48-.12,5.78-.29,2.29-1.01,4.96-2.15,7.99.65.09,1.45.17,2.39.25.95.08,1.95.16,3.02.24,1.06.09,2.09.15,3.07.19.99.04,1.76.06,2.34.06,2.79,0,5.31-.57,7.56-1.72,2.26-1.15,3.98-2.56,5.17-4.24s1.72-3.53,1.6-5.54c-.12-2.01-1.19-3.85-3.2-5.54-2.01-1.67-5.1-3.09-9.29-4.24-4.18-1.15-9.75-1.72-16.72-1.72-9.93,0-17.51,2.07-22.76,6.21s-7.87,9.58-7.87,16.3c0,2.87.82,5.39,2.46,7.56,1.64,2.18,3.69,4.08,6.15,5.72,2.46,1.64,5.1,3.14,7.93,4.49,2.83,1.36,5.48,2.65,7.94,3.88,2.46,1.23,4.51,2.5,6.15,3.81s2.46,2.83,2.46,4.55c0,4.43-.76,7.71-2.28,9.84s-3.1,3.2-4.73,3.2c-.91,0-1.73-.37-2.46-1.11-.74-.74-1.26-1.84-1.54-3.32-.29-1.48-.25-3.34.12-5.6.37-2.25,1.17-4.89,2.4-7.93-.58-.08-1.56-.16-2.95-.25-1.4-.08-2.83-.16-4.31-.24-1.47-.08-2.87-.14-4.18-.19-1.31-.04-2.21-.06-2.71-.06-2.46,0-4.73.6-6.82,1.79-2.09,1.19-3.67,2.7-4.74,4.55-1.06,1.84-1.49,3.81-1.29,5.9.2,2.09,1.35,4.06,3.45,5.9,2.09,1.85,5.26,3.37,9.53,4.56,4.26,1.18,9.88,1.78,16.85,1.78,4.92,0,9.47-.41,13.65-1.23s7.79-2.07,10.83-3.75c3.03-1.68,5.41-3.82,7.13-6.4,1.72-2.58,2.58-5.59,2.58-9.04v-.12c0-3.77-.82-6.89-2.46-9.35-1.64-2.46-3.69-4.57-6.15-6.33Z"/>
    <path class="cls-1" d="m237.38,104.67c-.59-.71-1.05-1.7-1.39-2.96-.33-1.26-.54-2.66-.63-4.22-.08-1.55-.14-3.06-.18-4.53-.05-1.47-.05-2.8,0-3.97.04-1.18.06-2.02.06-2.52v-20.41c-.17-4.71-.97-8.91-2.4-12.6-.58-1.6-1.34-3.15-2.26-4.67-.93-1.51-2.08-2.85-3.47-4.03-1.39-1.17-3-2.12-4.85-2.83-1.85-.72-3.99-1.07-6.43-1.07-6.13,0-11.27,1.55-15.43,4.66-4.16,3.11-7.33,7.68-9.51,13.73V23.97h-31.76v1.01c.67.34,1.24,1.83,1.7,4.47.47,2.65.82,5.65,1.08,9.01v38.11h-.2v41.87h29.11v-6.28h.02v-23.31h.05v-15.37c1.09-5.46,2.62-9.51,4.59-12.16,1.98-2.65,3.89-3.97,5.74-3.97,1.42,0,2.62.78,3.59,2.33.96,1.56,1.45,3.89,1.45,7v31.37c.17,3.02.88,5.71,2.14,8.06,1.09,2.02,2.77,3.87,5.04,5.55,2.27,1.68,5.5,2.52,9.7,2.52,3.78,0,6.78-.4,9.01-1.2s3.93-1.7,5.1-2.71c1.35-1.17,2.27-2.48,2.78-3.9l-.38-.89c-.93.17-1.68-.1-2.27-.82Z"/>
    <path class="cls-1" d="m279.75,108.11c-.45-1.72-.8-3.71-1.04-5.96-.25-2.26-.43-4.55-.56-6.89-.12-2.34-.18-4.28-.18-5.84v-45.64h-31.74v.99c.41.16.76.76,1.05,1.78.29,1.03.55,2.3.8,3.81.25,1.52.45,3.22.61,5.11.17,1.89.29,3.81.37,5.78.25,4.59.41,9.76.49,15.5v9.59c-.08,4.35-.24,8.28-.49,11.81-.08,1.48-.2,2.95-.37,4.43-.16,1.47-.36,2.81-.61,3.99-.25,1.19-.51,2.2-.8,3.02s-.64,1.35-1.05,1.6v.98h35.06v-.98c-.58-.33-1.09-1.36-1.54-3.08Z"/>
    <path class="cls-1" d="m251.28,24.29c1.31,1.76,2.81,3.22,4.49,4.36,1.68,1.15,3.5,1.73,5.47,1.73s3.81-.58,5.54-1.73c1.72-1.14,3.23-2.6,4.55-4.36,1.31-1.76,2.33-3.67,3.07-5.72.74-2.05,1.11-3.98,1.11-5.78s-.37-3.36-1.11-4.92-1.76-2.93-3.07-4.12c-1.32-1.19-2.83-2.11-4.55-2.77-1.73-.66-3.57-.98-5.54-.98s-3.79.32-5.47.98-3.18,1.58-4.49,2.77c-1.32,1.19-2.34,2.56-3.08,4.12s-1.1,3.2-1.1,4.92.36,3.73,1.1,5.78c.74,2.05,1.76,3.96,3.08,5.72Z"/>
    <path class="cls-1" d="m343.03,76.69c-2.46-1.77-5.1-3.28-7.93-4.56-2.83-1.27-5.47-2.54-7.93-3.81-2.46-1.27-4.51-2.72-6.15-4.36-1.64-1.64-2.46-3.69-2.46-6.15,0-4.27.55-7.42,1.66-9.48,1.1-2.04,2.23-3.07,3.38-3.07.74,0,1.43.41,2.09,1.23.66.82,1.09,2.01,1.29,3.57.21,1.56.17,3.48-.12,5.78-.29,2.29-1.01,4.96-2.15,7.99.65.09,1.45.17,2.39.25.95.08,1.95.16,3.02.24,1.06.09,2.09.15,3.07.19.99.04,1.77.06,2.34.06,2.79,0,5.31-.57,7.57-1.72,2.25-1.15,3.97-2.56,5.16-4.24s1.72-3.53,1.6-5.54c-.12-2.01-1.19-3.85-3.2-5.54-2.01-1.67-5.1-3.09-9.28-4.24-4.19-1.15-9.76-1.72-16.73-1.72-9.93,0-17.51,2.07-22.76,6.21s-7.87,9.58-7.87,16.3c0,2.87.82,5.39,2.46,7.56,1.64,2.18,3.69,4.08,6.15,5.72,2.46,1.64,5.11,3.14,7.93,4.49,2.83,1.36,5.48,2.65,7.94,3.88,2.46,1.23,4.51,2.5,6.15,3.81s2.46,2.83,2.46,4.55c0,4.43-.76,7.71-2.28,9.84s-3.09,3.2-4.73,3.2c-.91,0-1.73-.37-2.46-1.11-.74-.74-1.25-1.84-1.54-3.32-.29-1.48-.25-3.34.12-5.6.37-2.25,1.17-4.89,2.4-7.93-.57-.08-1.56-.16-2.95-.25-1.4-.08-2.83-.16-4.31-.24-1.47-.08-2.87-.14-4.18-.19-1.31-.04-2.21-.06-2.7-.06-2.46,0-4.74.6-6.83,1.79s-3.67,2.7-4.74,4.55c-1.06,1.84-1.49,3.81-1.29,5.9.21,2.09,1.35,4.06,3.45,5.9,2.09,1.85,5.26,3.37,9.53,4.56,4.26,1.18,9.88,1.78,16.85,1.78,4.92,0,9.47-.41,13.65-1.23s7.79-2.07,10.83-3.75c3.03-1.68,5.41-3.82,7.13-6.4,1.72-2.58,2.58-5.59,2.58-9.04v-.12c0-3.77-.82-6.89-2.46-9.35-1.64-2.46-3.69-4.57-6.15-6.33Z"/>
    <path class="cls-1" d="m437.37,105.65c-.9.17-1.64-.1-2.21-.8-.58-.69-1.03-1.66-1.35-2.89-.33-1.23-.54-2.6-.62-4.12-.08-1.51-.14-2.99-.18-4.43-.05-1.43-.05-2.72,0-3.87.04-1.15.06-1.97.06-2.46v-19.93c-.17-4.59-.95-8.69-2.34-12.3-.57-1.55-1.31-3.07-2.21-4.55-.91-1.47-2.03-2.78-3.38-3.93-1.36-1.15-2.94-2.07-4.74-2.77-1.81-.7-3.9-1.05-6.27-1.05-5.99,0-11.01,1.52-15.07,4.55-4.06,3.04-7.16,7.51-9.29,13.41V26.07h-30.99v.99c.65.32,1.2,1.78,1.66,4.36.45,2.59.8,5.52,1.04,8.8v46.24c-.08,4.35-.24,8.29-.49,11.81-.08,1.48-.23,2.94-.43,4.37-.21,1.43-.43,2.75-.68,3.93-.24,1.19-.51,2.2-.8,3.02-.28.82-.63,1.35-1.04,1.6v.98h35.05v-.98c-.57-.33-1.08-1.36-1.53-3.08-.46-1.72-.8-3.71-1.05-5.96-.25-2.26-.43-4.55-.55-6.89-.13-2.34-.19-4.28-.19-5.84v-15.01c1.07-5.33,2.56-9.29,4.49-11.87s3.79-3.87,5.6-3.87c1.39,0,2.56.76,3.5,2.27.94,1.52,1.42,3.8,1.42,6.83v30.63c.16,2.95.86,5.57,2.09,7.87,1.06,1.97,2.71,3.77,4.92,5.41,2.21,1.64,5.37,2.46,9.47,2.46,3.69,0,6.62-.39,8.79-1.17,2.18-.78,3.84-1.66,4.99-2.64,1.31-1.15,2.21-2.42,2.7-3.82l-.37-.86Z"/>
  </g>
  <rect class="cls-1" x="175.88" y="75.85" width=".09" height=".6"/>
  <path class="cls-1" d="m44.69,60.14c3.22,0,3.22-5,0-5s-3.22,5,0,5h0Z"/>
</svg>